<svg version="1.2" xmlns="http://www.w3.org/2000/svg" viewBox="0 0 2048 347" width="2048" height="347">
	<style>
		.s0 { fill: #ffffff } 
		.s1 { fill: #2e9bd7 } 
	</style>
	<path id="QUBICODE" class="s0" aria-label="QUBICODE"  d="m153.8 275.2q-29.2 0-54.4-9.5-24.7-9.7-43.3-27-17.9-17.4-28.3-40.4-9.9-23.8-9.9-51.5 0-27.8 9.9-51 10.4-23.4 28.7-40.5 18.3-17.7 42.9-26.9 25.1-9.9 54.4-9.9 29.4 0 53.8 9.9 25 9.1 42.9 26.6 18.6 17.2 28.4 40.8 10.5 23.1 10.5 51.1 0 27.8-10.5 51.4-9.8 23.2-28.4 40.8-17.9 17.1-42.9 26.6-24.4 9.5-53.8 9.5zm81.2 52.8q-14.6 0-27.7-3.1-12.9-3.2-25.6-10.3-12.5-7.2-26.2-19.1-13.4-12-29.6-29.7l60.4-15.3q9.6 13.2 17.4 21.2 8.3 7.4 16 11 7.9 3 16.4 3 22.7 0 40.2-18.8l25.7 30.8q-25.3 30.3-67 30.3zm-81.2-101.5q16.6 0 30.4-5.5 14.3-6 24.8-16.7 10.6-10.7 16.3-25.2 6-14.7 6-32.3 0-17.7-6-32.2-5.7-14.6-16.3-24.9-10.5-11-24.8-16.6-13.8-5.9-30.4-5.9-16.7 0-31 5.9-14 5.6-24.8 16.6-10.3 10.3-16.3 24.9-5.7 14.5-5.7 32.2 0 17.6 5.7 32.3 6 14.5 16.3 25.2 10.8 10.7 24.8 16.7 14.3 5.5 31 5.5zm288.9 48.7q-52.8 0-82.9-29.4-29.5-29.3-29.5-84.2v-138.9h57.6v137.1q0 35.2 14.4 51.3 14.7 15.4 40.9 15.4 26.3 0 40.7-15.4 14.6-16.1 14.6-51.3v-137.1h56.6v138.9q0 54.9-30 84.2-29.6 29.4-82.4 29.4zm298.1-4.2h-128.4v-248.3h121.3q46.8 0 70.3 17.7 23.9 17.8 23.9 47 0 19.4-9.7 33.9-9.5 14.1-26.3 22-16.7 7.9-38.3 7.9l6.7-14.7q23.5 0 41.2 7.9 18.3 7.6 28.4 22.7 10.4 14.7 10.4 36.1 0 32-25.3 50.1-25.1 17.7-74.2 17.7zm-71.3-205.2v162.1h67.2q22.2 0 33.6-7.3 11.9-7.6 11.9-23.4 0-15.7-11.9-23-11.4-7.8-33.6-7.8h-71.4v-41.9h61.4q21 0 31.9-7.1 11.2-7.6 11.2-22.2 0-14.8-11.2-21.8-10.9-7.6-31.9-7.6zm271.5 205.2h-57.6v-248.3h57.6zm177.4 4.2q-28.9 0-53.7-9.2-24.4-9.6-42.5-26.6-18.1-17.6-28.4-40.8-9.9-23.7-9.9-51.8 0-28 9.9-51.4 10.3-23.5 28.4-40.8 18.3-17.3 42.9-26.6 24.6-9.5 53.5-9.5 32.3 0 58.2 11.3 26.4 11 44 32.6l-36.8 34.1q-12.7-14.5-28.5-21.7-15.5-7.6-34.1-7.6-17.4 0-32.2 5.9-14.2 5.6-24.8 16.3-10.6 10.6-16.7 25.5-5.7 14.3-5.7 31.9 0 17.7 5.7 32.3 6.1 14.6 16.7 25.6 10.6 10.3 24.8 16.3 14.8 5.5 32.2 5.5 18.6 0 34.1-7.3 15.8-7.6 28.5-22.2l36.8 34.1q-17.6 21.4-44 32.8-25.9 11.3-58.4 11.3zm539.8-4.2h-112.8v-248.3h112.8q40.6 0 71.4 15.6 30.9 15.2 47.8 43.3 17.7 27.4 17.7 65.2 0 37.7-17.7 65.7-16.9 27.7-47.8 43.2-30.8 15.3-71.4 15.3zm-55.2-201.2v154.1h52.5q24.8 0 42.8-9.3 18.4-9.5 28.4-26.6 10.3-17.6 10.3-41.2 0-23.8-10.3-40.7-10-17.5-28.4-26.6-18-9.7-42.8-9.7zm427.7 201.2h-192.3v-248.3h187.5v46.2h-130.5v155.9h135.3zm-19.8-103.7h-119.7v-44.7h119.7z"/>
	<path id="QUBICODE" class="s1" aria-label="QUBICODE"  d="m1365.9 275.2q-29.3 0-54.5-9.5-24.7-9.7-43.3-27-17.9-17.4-28.3-40.4-9.9-23.7-9.9-51.5 0-27.8 9.9-51 10.4-23.4 28.7-40.5 18.3-17.7 42.9-26.9 25-9.9 54.4-9.9 29.4 0 53.8 9.9 25 9.1 42.9 26.6 18.6 17.2 28.4 40.8 10.5 23.1 10.5 51 0 27.9-10.5 51.5-9.8 23.2-28.4 40.8-17.9 17.1-42.9 26.6-24.4 9.5-53.7 9.5zm-0.1-48.7q16.6 0 30.4-5.5 14.4-6.1 24.8-16.7 10.6-10.6 16.3-25.2 6-14.6 6-32.3 0-17.7-6-31.9-5.7-14.8-16.3-25.2-10.4-10.9-24.8-16.6-13.9-5.9-30.5-5.9-16.6 0-30.9 5.9-14 5.7-24.8 16.6-10.3 10.4-16.3 25.2-5.7 14.3-5.7 31.9 0 17.6 5.7 32.3 6 14.5 16.3 25.2 10.8 10.7 24.8 16.7 14.4 5.5 31 5.5z"/>
</svg>