<svg version="1.2" xmlns="http://www.w3.org/2000/svg" viewBox="0 0 574 574" width="3870" height="3870">
	<style>
		.s0 { fill: #01aef6 } 
		.s1 { fill: #017be1 } 
		.s2 { fill: #004fcd } 
	</style>
	<g id="Background">
		<path id="Path 0" class="s0" d="m58.97 129.93c-1.39 0.41-4.32 1.66-6.5 2.77-2.18 1.11-5.67 4-7.76 6.41-2.08 2.41-4.78 6.86-5.99 9.89-2.13 5.33-2.22 6.97-2.71 53.5-0.5 46.85-0.56 48.1-2.68 52-1.19 2.2-4.11 5.88-6.5 8.18-2.38 2.31-7.37 5.57-11.08 7.25-4.02 1.83-7.46 4.16-8.5 5.78q-1.75 2.7-1.75 8.63c0 3.26 0.56 7.22 1.25 8.8 0.95 2.16 3.26 3.81 9.5 6.74 5.66 2.67 9.46 5.26 12.12 8.25 2.12 2.41 4.6 5.94 5.49 7.87 1.41 3.02 1.71 10.02 2.19 51.5 0.49 42.18 0.77 48.55 2.29 52.5 0.95 2.48 3.28 6.64 5.19 9.25 2.6 3.56 5.16 5.57 10.22 8l6.75 3.25c31.61 0.5 36.32 0.25 37.29-0.72 0.86-0.85 1.28-3.99 1.24-9.28-0.03-4.4-0.49-8.68-1.01-9.5-0.73-1.16-3.87-1.61-13.91-2-10.9-0.42-13.4-0.82-15.67-2.5-1.48-1.1-3.65-3.27-4.82-4.82-2.07-2.76-2.13-3.88-2.64-50.5-0.53-47.58-0.54-47.69-2.96-53.68-1.33-3.3-3.81-7.8-5.52-10-1.7-2.2-5.45-5.8-8.33-8-2.89-2.2-5.23-4.56-5.21-5.25 0.02-0.69 1.95-2.46 4.29-3.94 2.34-1.48 5.74-4.29 7.56-6.25 1.82-1.96 4.13-5.13 5.14-7.06 1-1.93 2.41-5.3 3.13-7.5 0.96-2.95 1.45-16.44 1.86-51.18 0.54-45.85 0.62-47.26 2.65-50 1.15-1.55 3.63-3.85 5.5-5.1 3.04-2.03 4.59-2.27 14.41-2.24 8.19 0.03 11.58-0.35 13.25-1.47 2.03-1.36 2.25-2.33 2.27-9.76 0.01-5.34-0.43-8.7-1.25-9.52-0.94-0.93-5.87-1.24-18.77-1.16-9.62 0.06-18.64 0.44-20.03 0.86zm415.97 1c-0.62 1.07-1.08 5.12-1.03 9 0.07 5.66 0.49 7.47 2.09 9.07 1.77 1.77 3.33 2 13.75 2 10.88-0.01 12.03 0.18 15.5 2.5 2.06 1.37 4.54 4.19 5.5 6.25 1.56 3.34 1.81 8.83 2.31 50.75 0.52 43.48 0.71 47.35 2.5 51.65 1.07 2.56 3.4 6.72 5.19 9.25 1.79 2.53 5.74 6.29 8.79 8.35 3.04 2.06 5.53 4.2 5.53 4.75-0.01 0.55-2.55 2.8-5.65 5-3.1 2.2-6.65 5.35-7.88 7-1.23 1.65-3.05 4.57-4.04 6.5-0.99 1.93-2.27 4.85-2.84 6.5-0.64 1.83-1.26 21.52-1.6 50.5l-0.56 47.5c-4.03 6.34-6.56 8.57-9 9.67-3.06 1.37-6.63 1.79-15.25 1.81-10.54 0.02-11.35 0.16-12.76 2.27-0.96 1.43-1.51 4.62-1.51 8.75 0 4.13 0.55 7.32 1.51 8.75 1.46 2.17 2.04 2.25 17.26 2.26 10.91 0 17.59-0.47 21.75-1.54 3.3-0.84 7.8-2.81 10-4.36 2.2-1.56 5.46-5.26 7.25-8.22 1.79-2.97 3.92-8.43 4.75-12.14 1.21-5.43 1.5-15.28 1.51-50.5l0.01-43.75c3.67-7.75 6.48-11.65 8.61-13.68 2.13-2.02 7.25-5.27 11.37-7.22 4.88-2.31 7.94-4.44 8.75-6.08 0.69-1.39 1.25-5.11 1.25-8.27 0-3.51-0.68-7.07-1.75-9.14-1.39-2.69-3.09-3.92-8.25-5.96-4.24-1.67-8.09-4.14-11.08-7.1-2.51-2.5-5.44-6.12-6.5-8.05-1.8-3.27-1.96-6.6-2.46-51.5-0.45-39.49-0.82-48.8-2.08-52.5-0.85-2.48-2.74-6.41-4.21-8.75-1.47-2.34-4.58-5.62-6.92-7.3-2.34-1.68-6.5-3.71-9.25-4.51-3.53-1.03-10.06-1.46-22.22-1.45-15.97 0.01-17.3 0.15-18.34 1.94zm-70.69 85.96c7.47-4.17 8.82-5.33 9.25-7.89 0.27-1.65 0.05-3.9-0.5-5-0.55-1.1-4.71-4.18-9.25-6.84-4.54-2.65-104.16-60.45-106.5-61.76-2.34-1.32-6.39-2.62-9-2.88-2.64-0.27-6.08 0.07-7.75 0.75-1.65 0.68-5.02 2.41-7.5 3.85-2.48 1.45-107.75 62.87-109.28 63.76-1.53 0.89-3.04 2.52-3.36 3.62-0.32 1.1-0.3 3.24 0.03 4.75 0.54 2.41 7.13 6.51 53.86 33.47 29.29 16.9 56.63 32.47 60.75 34.61 6.95 3.6 7.94 3.85 13.5 3.33 5.42-0.51 8.14-1.81 28-13.29 12.1-7 82.94-47.79 87.75-50.48z"/>
		<path id="Path 1" class="s1" d="m415.87 374.15c5.86-3.53 9.9-6.68 10.75-8.4 1.13-2.25 1.18-134.95-0.12-136.25-0.82-0.82-2.51-1.5-3.75-1.5-1.24 0-4.95 1.63-8.25 3.63-3.3 1.99-105.36 61.14-108.25 62.99-3.83 2.47-5.93 4.73-7.75 8.38l-2.5 5v129c3.49 1.74 5.85 2.03 7.5 1.77 1.65-0.27 107.22-61.51 112.37-64.62z"/>
		<path id="Path 2" class="s2" d="m261.11 434.98c0 0.55 5.17 2.53 6 2.72 0.82 0.19 2.54 0.44 3.81 0.56 1.27 0.12 2.85-0.42 3.5-1.19 0.65-0.78 1.35-2.13 1.55-3 0.19-0.88 0.94-121.88 0.05-125.59-0.65-2.75-2.12-6.35-3.26-8-1.14-1.65-2.99-3.67-4.11-4.49-1.13-0.83-109.29-63.61-112.04-65.16-2.75-1.55-5.99-2.82-7.21-2.83-1.21-0.01-2.94 0.98-3.84 2.2-1.49 2.02-1.27 130.61 0.31 134.09 1.2 2.63 3.29 4.73 6.74 6.75 2.75 1.62 108.5 63.39 108.5 63.94z"/>
	</g>
</svg>